<svg xmlns="http://www.w3.org/2000/svg" width="26.75" height="26.75" viewBox="0 0 26.75 26.75">
  <path id="Icon_awesome-facebook-square" data-name="Icon awesome-facebook-square" d="M22.991,2.25H2.759A2.759,2.759,0,0,0,0,5.009V25.241A2.759,2.759,0,0,0,2.759,28h7.889V19.246H7.027V15.125h3.621V11.984c0-3.572,2.127-5.545,5.384-5.545a21.937,21.937,0,0,1,3.191.278v3.506h-1.8A2.06,2.06,0,0,0,15.1,12.449v2.676h3.953l-.632,4.121H15.1V28h7.889a2.759,2.759,0,0,0,2.759-2.759V5.009A2.759,2.759,0,0,0,22.991,2.25Z" transform="translate(0.5 -1.75)" fill="#68b6ba" stroke="#68b6ba" stroke-width="1"/>
</svg>
