<svg xmlns="http://www.w3.org/2000/svg" width="27.524" height="27.524" viewBox="0 0 27.524 27.524">
  <g id="Icon_feather-instagram" data-name="Icon feather-instagram" transform="translate(1.5 1.5)">
    <path id="Path_78416" data-name="Path 78416" d="M9.131,3H21.393a6.131,6.131,0,0,1,6.131,6.131V21.393a6.131,6.131,0,0,1-6.131,6.131H9.131A6.131,6.131,0,0,1,3,21.393V9.131A6.131,6.131,0,0,1,9.131,3Z" transform="translate(-3 -3)" fill="none" stroke="#68b6ba" stroke-linecap="round" stroke-linejoin="round" stroke-width="3"/>
    <path id="Path_78417" data-name="Path 78417" d="M21.821,16.12a4.9,4.9,0,1,1-4.132-4.132,4.9,4.9,0,0,1,4.132,4.132Z" transform="translate(-4.655 -4.631)" fill="none" stroke="#68b6ba" stroke-linecap="round" stroke-linejoin="round" stroke-width="3"/>
    <path id="Path_78418" data-name="Path 78418" d="M26.25,9.75h0" transform="translate(-7.244 -4.232)" fill="none" stroke="#68b6ba" stroke-linecap="round" stroke-linejoin="round" stroke-width="3"/>
  </g>
</svg>
